<mxfile host="65bd71144e">
    <diagram id="DCa0mZ6HwyTWzlRcXGLa" name="Page-1">
        <mxGraphModel dx="828" dy="478" grid="1" gridSize="10" guides="1" tooltips="1" connect="1" arrows="1" fold="1" page="1" pageScale="1" pageWidth="827" pageHeight="1169" math="0" shadow="0">
            <root>
                <mxCell id="0"/>
                <mxCell id="1" parent="0"/>
                <mxCell id="lbH1ltmSGWksQMwF0OHR-18" style="edgeStyle=orthogonalEdgeStyle;rounded=0;orthogonalLoop=1;jettySize=auto;html=1;exitX=0.75;exitY=0;exitDx=0;exitDy=0;entryX=0;entryY=0.25;entryDx=0;entryDy=0;fontSize=13;" parent="1" source="lbH1ltmSGWksQMwF0OHR-1" target="lbH1ltmSGWksQMwF0OHR-2" edge="1">
                    <mxGeometry relative="1" as="geometry"/>
                </mxCell>
                <mxCell id="lbH1ltmSGWksQMwF0OHR-19" style="edgeStyle=orthogonalEdgeStyle;rounded=0;orthogonalLoop=1;jettySize=auto;html=1;exitX=1;exitY=0;exitDx=0;exitDy=0;entryX=0;entryY=0.5;entryDx=0;entryDy=0;fontSize=13;" parent="1" source="lbH1ltmSGWksQMwF0OHR-1" target="lbH1ltmSGWksQMwF0OHR-4" edge="1">
                    <mxGeometry relative="1" as="geometry"/>
                </mxCell>
                <mxCell id="lbH1ltmSGWksQMwF0OHR-21" style="edgeStyle=orthogonalEdgeStyle;rounded=0;orthogonalLoop=1;jettySize=auto;html=1;entryX=0;entryY=0.5;entryDx=0;entryDy=0;fontSize=13;" parent="1" source="lbH1ltmSGWksQMwF0OHR-1" target="lbH1ltmSGWksQMwF0OHR-6" edge="1">
                    <mxGeometry relative="1" as="geometry">
                        <mxPoint x="480" y="260" as="targetPoint"/>
                    </mxGeometry>
                </mxCell>
                <mxCell id="lbH1ltmSGWksQMwF0OHR-22" style="edgeStyle=orthogonalEdgeStyle;rounded=0;orthogonalLoop=1;jettySize=auto;html=1;exitX=1;exitY=1;exitDx=0;exitDy=0;entryX=0;entryY=0.5;entryDx=0;entryDy=0;fontSize=13;" parent="1" source="lbH1ltmSGWksQMwF0OHR-1" target="lbH1ltmSGWksQMwF0OHR-8" edge="1">
                    <mxGeometry relative="1" as="geometry"/>
                </mxCell>
                <mxCell id="lbH1ltmSGWksQMwF0OHR-1" value="328p&lt;br style=&quot;font-size: 13px;&quot;&gt;o&lt;br style=&quot;font-size: 13px;&quot;&gt;Arduino UNO" style="rounded=1;whiteSpace=wrap;html=1;fontSize=13;" parent="1" vertex="1">
                    <mxGeometry x="340" y="230" width="120" height="60" as="geometry"/>
                </mxCell>
                <mxCell id="lbH1ltmSGWksQMwF0OHR-2" value="Display&lt;br style=&quot;font-size: 13px;&quot;&gt;2x16" style="rounded=1;whiteSpace=wrap;html=1;fontSize=13;" parent="1" vertex="1">
                    <mxGeometry x="540" y="80" width="120" height="60" as="geometry"/>
                </mxCell>
                <mxCell id="lbH1ltmSGWksQMwF0OHR-20" style="edgeStyle=orthogonalEdgeStyle;rounded=0;orthogonalLoop=1;jettySize=auto;html=1;exitX=1;exitY=0.5;exitDx=0;exitDy=0;entryX=0;entryY=0.5;entryDx=0;entryDy=0;fillColor=#f8cecc;strokeColor=#b85450;fontSize=13;" parent="1" source="lbH1ltmSGWksQMwF0OHR-4" target="lbH1ltmSGWksQMwF0OHR-5" edge="1">
                    <mxGeometry relative="1" as="geometry"/>
                </mxCell>
                <mxCell id="lbH1ltmSGWksQMwF0OHR-4" value="Etapa de potencia&lt;br style=&quot;font-size: 13px;&quot;&gt;220?" style="rounded=1;whiteSpace=wrap;html=1;fontSize=13;" parent="1" vertex="1">
                    <mxGeometry x="540" y="170" width="120" height="60" as="geometry"/>
                </mxCell>
                <mxCell id="lbH1ltmSGWksQMwF0OHR-5" value="Leds Alta potencia" style="rounded=1;whiteSpace=wrap;html=1;fontSize=13;" parent="1" vertex="1">
                    <mxGeometry x="707" y="170" width="120" height="60" as="geometry"/>
                </mxCell>
                <mxCell id="lbH1ltmSGWksQMwF0OHR-23" style="edgeStyle=orthogonalEdgeStyle;rounded=0;orthogonalLoop=1;jettySize=auto;html=1;exitX=1;exitY=0.5;exitDx=0;exitDy=0;entryX=0;entryY=0.5;entryDx=0;entryDy=0;fillColor=#dae8fc;strokeColor=#6c8ebf;fontSize=13;" parent="1" source="lbH1ltmSGWksQMwF0OHR-6" target="lbH1ltmSGWksQMwF0OHR-7" edge="1">
                    <mxGeometry relative="1" as="geometry"/>
                </mxCell>
                <mxCell id="lbH1ltmSGWksQMwF0OHR-6" value="Etapa de potencia" style="rounded=1;whiteSpace=wrap;html=1;fontSize=13;" parent="1" vertex="1">
                    <mxGeometry x="540" y="250" width="120" height="60" as="geometry"/>
                </mxCell>
                <mxCell id="lbH1ltmSGWksQMwF0OHR-7" value="Bomba de Agua" style="rounded=1;whiteSpace=wrap;html=1;fontSize=13;" parent="1" vertex="1">
                    <mxGeometry x="707" y="250" width="120" height="60" as="geometry"/>
                </mxCell>
                <mxCell id="lbH1ltmSGWksQMwF0OHR-24" style="edgeStyle=orthogonalEdgeStyle;rounded=0;orthogonalLoop=1;jettySize=auto;html=1;exitX=1;exitY=0.5;exitDx=0;exitDy=0;entryX=0;entryY=0.5;entryDx=0;entryDy=0;fillColor=#f8cecc;strokeColor=#b85450;fontSize=13;" parent="1" source="lbH1ltmSGWksQMwF0OHR-8" target="lbH1ltmSGWksQMwF0OHR-9" edge="1">
                    <mxGeometry relative="1" as="geometry"/>
                </mxCell>
                <mxCell id="lbH1ltmSGWksQMwF0OHR-8" value="fan driver&lt;br style=&quot;font-size: 13px;&quot;&gt;220?" style="rounded=1;whiteSpace=wrap;html=1;fontSize=13;" parent="1" vertex="1">
                    <mxGeometry x="540" y="340" width="120" height="60" as="geometry"/>
                </mxCell>
                <mxCell id="lbH1ltmSGWksQMwF0OHR-9" value="Cooler" style="rounded=1;whiteSpace=wrap;html=1;fontSize=13;" parent="1" vertex="1">
                    <mxGeometry x="710" y="340" width="120" height="60" as="geometry"/>
                </mxCell>
                <mxCell id="lbH1ltmSGWksQMwF0OHR-17" style="edgeStyle=orthogonalEdgeStyle;rounded=0;orthogonalLoop=1;jettySize=auto;html=1;entryX=0;entryY=0;entryDx=0;entryDy=0;fontSize=13;" parent="1" source="lbH1ltmSGWksQMwF0OHR-10" target="lbH1ltmSGWksQMwF0OHR-1" edge="1">
                    <mxGeometry relative="1" as="geometry"/>
                </mxCell>
                <mxCell id="lbH1ltmSGWksQMwF0OHR-10" value="LDR" style="rounded=1;whiteSpace=wrap;html=1;fontSize=13;" parent="1" vertex="1">
                    <mxGeometry x="140" y="90" width="120" height="60" as="geometry"/>
                </mxCell>
                <mxCell id="lbH1ltmSGWksQMwF0OHR-14" style="edgeStyle=orthogonalEdgeStyle;rounded=0;orthogonalLoop=1;jettySize=auto;html=1;entryX=0;entryY=0.25;entryDx=0;entryDy=0;fontSize=13;" parent="1" source="lbH1ltmSGWksQMwF0OHR-11" target="lbH1ltmSGWksQMwF0OHR-1" edge="1">
                    <mxGeometry relative="1" as="geometry"/>
                </mxCell>
                <mxCell id="lbH1ltmSGWksQMwF0OHR-11" value="Sensor de Humedad suelo" style="rounded=1;whiteSpace=wrap;html=1;fontSize=13;" parent="1" vertex="1">
                    <mxGeometry x="140" y="200" width="120" height="60" as="geometry"/>
                </mxCell>
                <mxCell id="lbH1ltmSGWksQMwF0OHR-15" style="edgeStyle=orthogonalEdgeStyle;rounded=0;orthogonalLoop=1;jettySize=auto;html=1;entryX=0.075;entryY=1.05;entryDx=0;entryDy=0;entryPerimeter=0;fontSize=13;" parent="1" source="lbH1ltmSGWksQMwF0OHR-12" target="lbH1ltmSGWksQMwF0OHR-1" edge="1">
                    <mxGeometry relative="1" as="geometry"/>
                </mxCell>
                <mxCell id="lbH1ltmSGWksQMwF0OHR-12" value="Sensor temp y humedad ambiente&lt;br style=&quot;font-size: 13px;&quot;&gt;DHT11" style="rounded=1;whiteSpace=wrap;html=1;fontSize=13;" parent="1" vertex="1">
                    <mxGeometry x="140" y="300" width="120" height="60" as="geometry"/>
                </mxCell>
                <mxCell id="lbH1ltmSGWksQMwF0OHR-16" style="edgeStyle=orthogonalEdgeStyle;rounded=0;orthogonalLoop=1;jettySize=auto;html=1;entryX=0.25;entryY=1;entryDx=0;entryDy=0;fontSize=13;" parent="1" source="lbH1ltmSGWksQMwF0OHR-13" target="lbH1ltmSGWksQMwF0OHR-1" edge="1">
                    <mxGeometry relative="1" as="geometry"/>
                </mxCell>
                <mxCell id="lbH1ltmSGWksQMwF0OHR-13" value="encoder con pulsador" style="rounded=1;whiteSpace=wrap;html=1;fontSize=13;" parent="1" vertex="1">
                    <mxGeometry x="140" y="420" width="120" height="60" as="geometry"/>
                </mxCell>
                <mxCell id="lbH1ltmSGWksQMwF0OHR-30" style="edgeStyle=orthogonalEdgeStyle;rounded=0;orthogonalLoop=1;jettySize=auto;html=1;exitX=1;exitY=0.25;exitDx=0;exitDy=0;fontSize=13;" parent="1" source="lbH1ltmSGWksQMwF0OHR-25" target="lbH1ltmSGWksQMwF0OHR-29" edge="1">
                    <mxGeometry relative="1" as="geometry"/>
                </mxCell>
                <mxCell id="lbH1ltmSGWksQMwF0OHR-31" style="edgeStyle=orthogonalEdgeStyle;rounded=0;orthogonalLoop=1;jettySize=auto;html=1;exitX=1;exitY=0.75;exitDx=0;exitDy=0;entryX=0;entryY=0.5;entryDx=0;entryDy=0;fontSize=13;" parent="1" source="lbH1ltmSGWksQMwF0OHR-25" target="lbH1ltmSGWksQMwF0OHR-28" edge="1">
                    <mxGeometry relative="1" as="geometry"/>
                </mxCell>
                <mxCell id="lbH1ltmSGWksQMwF0OHR-25" value="Protecciones&amp;nbsp;" style="rounded=1;whiteSpace=wrap;html=1;fillColor=#f8cecc;strokeColor=#b85450;fontSize=13;" parent="1" vertex="1">
                    <mxGeometry x="150" y="560" width="130" height="55" as="geometry"/>
                </mxCell>
                <mxCell id="lbH1ltmSGWksQMwF0OHR-26" value="" style="shape=flexArrow;endArrow=classic;html=1;" parent="1" edge="1">
                    <mxGeometry width="50" height="50" relative="1" as="geometry">
                        <mxPoint x="30" y="585" as="sourcePoint"/>
                        <mxPoint x="150" y="585" as="targetPoint"/>
                        <Array as="points">
                            <mxPoint x="80" y="585"/>
                        </Array>
                    </mxGeometry>
                </mxCell>
                <mxCell id="lbH1ltmSGWksQMwF0OHR-27" value="entrada de linea" style="edgeLabel;html=1;align=center;verticalAlign=middle;resizable=0;points=[];fontSize=13;" parent="lbH1ltmSGWksQMwF0OHR-26" vertex="1" connectable="0">
                    <mxGeometry x="0.3556" y="2" relative="1" as="geometry">
                        <mxPoint x="-21" y="2" as="offset"/>
                    </mxGeometry>
                </mxCell>
                <mxCell id="bydJ9XNAxXXHSQKgwrd1-8" style="edgeStyle=orthogonalEdgeStyle;rounded=0;orthogonalLoop=1;jettySize=auto;html=1;exitX=1;exitY=0.5;exitDx=0;exitDy=0;entryX=0.75;entryY=1;entryDx=0;entryDy=0;fillColor=#dae8fc;strokeColor=#6c8ebf;fontSize=13;" parent="1" source="lbH1ltmSGWksQMwF0OHR-28" target="lbH1ltmSGWksQMwF0OHR-1" edge="1">
                    <mxGeometry relative="1" as="geometry">
                        <mxPoint x="490" y="400" as="targetPoint"/>
                        <Array as="points">
                            <mxPoint x="570" y="630"/>
                            <mxPoint x="570" y="445"/>
                            <mxPoint x="430" y="445"/>
                        </Array>
                    </mxGeometry>
                </mxCell>
                <mxCell id="bydJ9XNAxXXHSQKgwrd1-9" style="edgeStyle=orthogonalEdgeStyle;rounded=0;orthogonalLoop=1;jettySize=auto;html=1;exitX=1;exitY=0.75;exitDx=0;exitDy=0;fillColor=#dae8fc;strokeColor=#6c8ebf;fontSize=13;" parent="1" source="lbH1ltmSGWksQMwF0OHR-28" target="lbH1ltmSGWksQMwF0OHR-6" edge="1">
                    <mxGeometry relative="1" as="geometry">
                        <mxPoint x="490" y="290" as="targetPoint"/>
                        <Array as="points">
                            <mxPoint x="730" y="645"/>
                            <mxPoint x="730" y="410"/>
                            <mxPoint x="480" y="410"/>
                            <mxPoint x="480" y="290"/>
                        </Array>
                    </mxGeometry>
                </mxCell>
                <mxCell id="bydJ9XNAxXXHSQKgwrd1-11" style="edgeStyle=orthogonalEdgeStyle;rounded=0;orthogonalLoop=1;jettySize=auto;html=1;exitX=1;exitY=0.25;exitDx=0;exitDy=0;entryX=1;entryY=0.75;entryDx=0;entryDy=0;fillColor=#dae8fc;strokeColor=#6c8ebf;fontSize=13;" parent="1" source="lbH1ltmSGWksQMwF0OHR-28" target="lbH1ltmSGWksQMwF0OHR-13" edge="1">
                    <mxGeometry relative="1" as="geometry"/>
                </mxCell>
                <mxCell id="lbH1ltmSGWksQMwF0OHR-28" value="switching 5v dc" style="rounded=1;whiteSpace=wrap;html=1;fillColor=#d5e8d4;strokeColor=#82b366;fontSize=13;" parent="1" vertex="1">
                    <mxGeometry x="330" y="600" width="120" height="60" as="geometry"/>
                </mxCell>
                <mxCell id="bydJ9XNAxXXHSQKgwrd1-17" style="edgeStyle=orthogonalEdgeStyle;rounded=0;orthogonalLoop=1;jettySize=auto;html=1;exitX=1;exitY=0.5;exitDx=0;exitDy=0;entryX=0.5;entryY=1;entryDx=0;entryDy=0;fillColor=#f8cecc;strokeColor=#b85450;fontSize=13;" parent="1" source="lbH1ltmSGWksQMwF0OHR-29" target="lbH1ltmSGWksQMwF0OHR-8" edge="1">
                    <mxGeometry relative="1" as="geometry"/>
                </mxCell>
                <mxCell id="lbH1ltmSGWksQMwF0OHR-29" value="alimentación&lt;br style=&quot;font-size: 13px;&quot;&gt;220v ac" style="rounded=1;whiteSpace=wrap;html=1;fillColor=#f8cecc;strokeColor=#b85450;fontSize=13;" parent="1" vertex="1">
                    <mxGeometry x="330" y="530" width="120" height="60" as="geometry"/>
                </mxCell>
                <mxCell id="bydJ9XNAxXXHSQKgwrd1-10" value="" style="endArrow=classic;html=1;rounded=0;entryX=0;entryY=0.5;entryDx=0;entryDy=0;fillColor=#dae8fc;strokeColor=#6c8ebf;fontSize=13;" parent="1" target="lbH1ltmSGWksQMwF0OHR-2" edge="1">
                    <mxGeometry width="50" height="50" relative="1" as="geometry">
                        <mxPoint x="480" y="290" as="sourcePoint"/>
                        <mxPoint x="500" y="130" as="targetPoint"/>
                        <Array as="points">
                            <mxPoint x="480" y="110"/>
                        </Array>
                    </mxGeometry>
                </mxCell>
                <mxCell id="bydJ9XNAxXXHSQKgwrd1-12" value="" style="endArrow=classic;html=1;rounded=0;entryX=1;entryY=0.25;entryDx=0;entryDy=0;fillColor=#dae8fc;strokeColor=#6c8ebf;fontSize=13;" parent="1" target="lbH1ltmSGWksQMwF0OHR-10" edge="1">
                    <mxGeometry width="50" height="50" relative="1" as="geometry">
                        <mxPoint x="320" y="470" as="sourcePoint"/>
                        <mxPoint x="320" y="100" as="targetPoint"/>
                        <Array as="points">
                            <mxPoint x="320" y="150"/>
                            <mxPoint x="320" y="105"/>
                            <mxPoint x="310" y="105"/>
                        </Array>
                    </mxGeometry>
                </mxCell>
                <mxCell id="bydJ9XNAxXXHSQKgwrd1-14" value="" style="endArrow=classic;html=1;rounded=0;entryX=1;entryY=0.25;entryDx=0;entryDy=0;fillColor=#dae8fc;strokeColor=#6c8ebf;fontSize=13;" parent="1" target="lbH1ltmSGWksQMwF0OHR-11" edge="1">
                    <mxGeometry width="50" height="50" relative="1" as="geometry">
                        <mxPoint x="320" y="215" as="sourcePoint"/>
                        <mxPoint x="300" y="380" as="targetPoint"/>
                    </mxGeometry>
                </mxCell>
                <mxCell id="bydJ9XNAxXXHSQKgwrd1-15" value="" style="endArrow=classic;html=1;rounded=0;entryX=1;entryY=0.25;entryDx=0;entryDy=0;fillColor=#dae8fc;strokeColor=#6c8ebf;fontSize=13;" parent="1" edge="1">
                    <mxGeometry width="50" height="50" relative="1" as="geometry">
                        <mxPoint x="320" y="320" as="sourcePoint"/>
                        <mxPoint x="260" y="320" as="targetPoint"/>
                        <Array as="points">
                            <mxPoint x="300" y="320"/>
                        </Array>
                    </mxGeometry>
                </mxCell>
            </root>
        </mxGraphModel>
    </diagram>
</mxfile>